<svg width="46" height="48" viewBox="0 0 46 48" fill="none" xmlns="http://www.w3.org/2000/svg">
<path d="M36.0883 22.9117C31.7617 18.585 24.7554 18.6096 20.4533 22.9363C16.1267 27.2629 16.1267 34.2692 20.4533 38.5713C24.1162 42.2096 29.7704 42.8488 34.1462 40.12L41.7917 47.6671L45.2087 44.25L37.6125 36.6046C40.3904 32.2533 39.7513 26.55 36.0883 22.9117ZM32.6221 35.0804C30.2129 37.4896 26.3287 37.465 23.9196 35.0804C21.535 32.6713 21.535 28.7871 23.9442 26.3779C26.3287 23.9933 30.2129 23.9933 32.6221 26.3779C35.0067 28.7871 35.0067 32.6713 32.6221 35.0804ZM16.9625 42.0375C15.3646 40.415 14.1108 38.4729 13.3242 36.3342C5.58042 35.0313 0 31.3683 0 27.0417V34.4167C0 39.8496 8.80083 44.25 19.6667 44.25C18.6833 43.6108 17.7737 42.8733 16.9625 42.0375ZM0 14.75V22.125C0 26.255 5.08875 29.795 12.2917 31.2208C12.2917 31.0488 12.2917 30.9013 12.2917 30.7292C12.2917 28.4429 12.7833 26.1813 13.7175 24.1163C5.7525 22.8625 0 19.1504 0 14.75ZM19.6667 0C8.80083 0 0 4.40042 0 9.83333C0 14.75 7.375 18.88 16.8396 19.6667H16.9625C19.9125 16.5692 23.9933 14.75 28.2708 14.75C30.5079 14.75 32.7204 15.2171 34.7608 16.1267C37.2929 14.9713 39.0137 12.5867 39.3333 9.83333C39.3333 4.40042 30.5325 0 19.6667 0Z" fill="#D6CD2A"/>
</svg>
